<svg xmlns="http://www.w3.org/2000/svg" width="30" height="29.957" viewBox="0 0 30 29.957">
  <path id="Path_6800" data-name="Path 6800" d="M3351.828,3426.83a1.271,1.271,0,0,0-1.256-.83H3323.34a1.272,1.272,0,0,0-1.256.83,1.226,1.226,0,0,0,.3,1.489l10.489,10.489v10.34a1.312,1.312,0,0,0,.4.958l5.447,5.445a1.26,1.26,0,0,0,.958.406,1.475,1.475,0,0,0,.531-.107,1.272,1.272,0,0,0,.83-1.255v-15.787l10.489-10.489a1.226,1.226,0,0,0,.3-1.489Zm0,0" transform="translate(-3321.956 -3426)" fill="#134859"/>
</svg>
